<?xml version="1.0" standalone="yes"?>
<svg xmlns="http://www.w3.org/2000/svg" width="1044" height="921">
<path style="fill:#f5f5e7; stroke:none;" d="M0 0L0 543L6 543L6 544L0 544L0 921L1044 921L1044 683L1043 683C1040.81 789.384 952.896 867.881 859 900.079C794.86 922.073 720.201 925.021 653 917.826C614.017 913.653 575.805 905.062 537 899.428C479 891.007 420.431 883.753 362 878.17C339.178 875.989 315.695 875.951 293 872.7C254.162 867.136 217.532 853.933 181 840.064C154.575 830.032 125.36 820.231 104 801C110.083 800.999 116.086 800.656 122 799.076C154.626 790.364 153 756.88 153 730C153 711.464 153.185 692.553 136 680.916C122.304 671.641 102.714 671.055 87 667.127C80.2363 665.436 71.1393 663.034 72.2716 654.001C73.4164 644.868 82.7874 647.804 89 647.986C101.015 648.339 112.931 649 125 649C129.377 649 135.944 650.19 139.891 647.972C143.655 645.858 144.618 640.95 144.91 637C145.68 626.556 145.423 615.462 144.961 605C144.78 600.916 144.305 595.407 140.772 592.742C132.265 586.327 110.38 591.818 100 590.83C79.7972 588.908 52.7515 581.92 34 592.349C10.011 605.69 13.4104 648.719 16.7292 672C17.8016 679.523 19.2049 687.249 22.9043 694C33.6818 713.668 55.0717 719.302 75 725.28C82.6333 727.57 97.0602 728.285 96.7971 739C96.6563 744.732 92.1675 747.085 87 746.956C75.6834 746.673 52.2401 745.642 43.1736 738.487C36.6424 733.333 32.7789 724.059 28.716 717C16.9051 696.479 8.19008 672.339 4.08411 649C-0.146381 624.953 0.867154 600.163 3.16975 576C4.04336 566.832 11.1188 551.928 7 544C11.8458 543.276 16.1576 520.82 15 516C20.5861 514.809 22.5436 502.049 24.2199 497C30.1889 479.02 40.7741 461.736 49.5455 445C75.038 396.361 119.092 348.259 167 321L166 318C169.89 318.726 171.791 317.829 173 314C181.859 313.786 188.478 307.441 196 303.387C201.305 300.528 207.017 299.422 211.267 294.895C217.684 288.061 221.723 279.624 229.004 273.44C233.758 269.401 249.047 263.544 250.682 257.867C256.066 239.171 249.662 214.438 251 195C258.367 199.096 266.944 203.073 271.088 211C273.115 214.877 272 220.748 272 225C272 235.976 273.55 248.288 271 259L291 263L290 254L291 254C293.118 261.638 297.103 261.185 304 259L302 255C310.664 258.003 313.063 253.911 321.09 252.989C324.854 252.557 329.203 254.292 331.257 249.775C333.804 244.175 329.324 234.798 328.424 229C326.373 215.784 321.908 203.064 319.314 190C317.699 181.864 316.246 170.035 311.157 163.225C308.074 159.099 302.234 159.331 298 157.035C289.214 152.27 280.294 146.839 273.09 139.83C264.808 131.772 256.991 119.651 255.213 108C251.4 83.0076 253.833 55.0839 246.618 31C244.412 23.6372 244.685 11.5769 236 9L236 0L0 0z"/>
<path style="fill:#b39850; stroke:none;" d="M236 9L241 11L240 0C234.58 0.907227 235.654 4.4079 236 9z"/>
<path style="fill:#80a934; stroke:none;" d="M240 0C239.459 13.5024 246.761 25.6606 248.795 39C253.147 67.5492 247.026 105.1 264.637 130C270.426 138.184 279.241 146.907 288 151.802C301.897 159.567 311.792 158.815 316.576 176C330.65 226.562 339 278.621 339 331C339 350.175 340.02 369.951 337.891 389C337.039 396.625 330.52 400.436 332.279 409C334.975 422.133 350.661 425.708 362 425.985C366.881 426.105 374.074 427.476 376 422L373 422L376 416L377 416L377 419L378 419C383.492 397.772 375.509 371.166 371.314 350C366.693 326.681 367.599 303.267 361.76 280C358.94 268.762 362.881 256.69 357 246L361 246C356.982 225.409 366.322 193.256 385.015 182.224C396.251 175.592 410.367 174.406 422.015 167.485C436.66 158.783 449.756 146.308 461.247 133.83C483.669 109.482 497.564 72.0976 497.981 39C498.149 25.7053 494 13.3556 494 0L488 0L489 17C465.017 22.7098 437.333 17.3088 418.299 37.3241C403.398 52.9927 398.744 77.9449 393.482 98C391.595 105.195 386.829 111.65 385.336 119C381.831 136.262 380.597 154.198 366.715 166.625C351.508 180.238 328.527 161.956 328.229 144C328.151 139.281 331.879 135.835 334.124 132C338.023 125.341 340.74 118.348 343 111L361 113C363.223 104.045 364.741 99.8144 361 91L343 93C340.594 83.235 339.847 72.9949 334.525 64.1697C316.104 33.6238 278.59 13.694 245 5L246 0L240 0z"/>
<path style="fill:#b39850; stroke:none;" d="M246 0L245 5L270 14L270 13L246 5L246 4L250 4L251 0L246 0z"/>
<path style="fill:#f5f5e7; stroke:none;" d="M251 0L250 4L246 4L246 5C259.522 5.61932 275.328 22.3693 288 19C290.892 28.7744 309.356 36.4862 316.975 43.3248C331.079 55.9833 338.79 71.8011 343 90L358 87L359 87L363.736 98.0008L361 115L343 113C340.802 118.984 339.262 124.633 335.64 130C332.894 134.07 328.212 137.749 328.149 143C327.921 161.985 351.291 179.466 366.996 165.791C380.727 153.835 381.679 134.604 385.386 118C387.083 110.398 391.382 103.503 393.394 96C398.381 77.4022 403.918 51.5805 418.134 37.4699C438.522 17.2341 464.634 24.2023 489 17L488 0L251 0z"/>
<path style="fill:#b39850; stroke:none;" d="M494 0L496 22L497 22L496 0L494 0z"/>
<path style="fill:#f5f5e7; stroke:none;" d="M496 0C496 14.2226 498.873 28.874 497.91 43C494.933 86.6809 474.418 126.398 440.486 153.95C430.05 162.424 418.416 170.627 406 175.941C399.323 178.798 391.46 178.328 385.015 181.684C379.224 184.699 374.45 191.921 370.955 197.286C364.887 206.601 363.715 220.242 362.91 231C362.65 234.464 359.89 240.437 363.448 242.972C366.086 244.852 371.04 244.068 374 243.535C383.262 241.869 394.08 240.638 403 238L400 212L411 211C411 216.177 408.314 232.633 413.318 235.593C417.623 238.139 427.221 234.604 432 234L432 233L428 233L427 204L443 198.129L482 180L482 231L490 230L488 175C497.262 172.996 519.262 163.358 525 156L529 157L528 182L528 229L524 229L524 230C531.152 230.565 551.668 235.358 557.397 230.821C561.349 227.691 559 213.662 559 209L559 164C559 158.078 557.466 149.602 559.603 144.018C562.728 135.856 576.674 133.955 582 127L590 126C587.552 134.28 589 144.393 589 153L589 205C589 213.711 591.327 226.22 587 234C594.817 235.861 609.878 239.7 617 236C618.021 240.763 639.514 243.603 641.667 237.917C645.689 227.292 642 208.413 642 197L642 128C642 116.883 643.893 103.76 641 93C647.058 100.996 643 123.032 643 133C643 169.06 646.519 207.242 642 243C645.664 243.29 653.349 246.109 655.972 242.527C660.552 236.275 657 216.687 657 209L657 118C657 106.136 652.1 85.3606 666 81C662.312 93.4749 665 109.997 665 123L665 210C665 220.2 659.599 247.675 673 248L673 112C673 94.4214 667.846 72.9325 687 64C683.32 79.4553 686 98.1332 686 114L686 214C686 224.524 683.466 238.768 686.318 248.891C687.642 253.59 695.291 255.089 697.972 250.768C700.029 247.452 699 241.733 699 238L699 209L699 99L699 67C699 61.537 698.041 56.1937 702 52C698.039 68.6384 701 88.9125 701 106L701 213C701 224.789 697.915 241.509 701.318 252.775C702.812 257.723 711.052 258.806 715 257C715.729 262.299 724.171 261.372 728 260L727 263L747 268L747.005 27.0008L751.683 15.8156L752 0L496 0z"/>
<path style="fill:#b39850; stroke:none;" d="M752 0L751.683 14.9066L747.005 26.0038L747 268L727 263L728 260C724.4 260.6 713.828 261.688 715 257L713 259L702.028 253.581L701 241L701 209L701 106L702 52C697.676 55.1184 699 61.1319 699 66L699 101L699 208L699 237C699 240.845 699.976 246.416 697.972 249.877C695.108 254.822 687.708 253.154 686.318 247.956C683.569 237.672 686 223.649 686 213L686 116C686 99.1074 683.913 80.6298 687 64C667.698 69.4179 673 93.7452 673 109L673 248C659.736 247.271 665 219.989 665 210L665 125C665 110.965 662.743 94.6793 666 81C651.718 84.1174 657 107.406 657 119L657 207C657 215.779 660.502 234.115 656.012 241.732C653.476 246.034 645.976 243.171 642 243L643 203L643 130L643 103L641 93C646.499 122.621 642 156.863 642 187C642 201.898 645.43 221.565 641.683 235.959C639.65 243.768 620.393 241.235 617 236C608.836 239.1 595.648 235.605 587 234C591.844 227.084 589 212.28 589 204C589 179.595 584.351 149.729 590 126L582 127C576.386 131.854 561.224 136.696 559.318 144.018C557.751 150.04 559 157.796 559 164L559 207C559 212.367 561.471 226.271 557.397 230.258C552.12 235.42 531.096 230.305 524 230L524 229L528 229C528 206.421 523.772 178.959 529 157L525 156C516.055 163.594 499.19 171.184 488 175L490 230L482 231L482 180C463.137 184.521 446.824 202.573 427 204L428 233L432 233L432 234C427.043 234.391 417.671 237.945 413.318 234.936C408.378 231.521 411 216.401 411 211L400 212L403 238C393.087 240.36 368.269 248.068 361 240L360 240C360.721 253.016 381.934 244.793 390 242.839C399.58 240.519 409.292 240.87 419 239.826C443.783 237.163 467.85 235 493 235L493 236C480.615 241.262 467.326 241.076 454 243.389C447.122 244.583 442.27 248.64 434.917 248.583C430.673 248.551 427.294 245.206 423 245.167C418.509 245.125 401.85 246.031 401 250C410.422 247.698 421.519 248.24 431 250L431 251L401 256L401 252L399 254L398 254C395.862 244.022 372.479 257.035 366.028 256.361C363.144 256.06 362.34 252.241 360 251L360 259L364 257L367 260L366 263L381 260L381 259L379 258L381 254L396 255C391.186 262.066 379.95 263.396 372 265.566C367.897 266.686 362.273 265.787 361.228 271.058C359.027 282.166 365.635 297.805 367.539 309.004C371.474 332.141 371.529 355.997 375.756 379.184C377.954 391.238 385.462 412.938 375.348 423.566C372.175 426.901 366.186 426.144 362 425.961C350.346 425.45 334.992 421.351 332.279 408C330.941 401.42 335.175 398.554 337.258 393C339.03 388.278 338.564 381.057 338.795 376C340.307 342.884 341.684 306.399 335 274L334 274C330.561 278.341 322.548 282.377 317 283.15C315.589 283.346 308.991 284.144 309.616 281.209C310.099 278.946 319.21 281.028 321 275L333 271L333 262L328 268C319.728 265.902 300.805 265.912 299 277L296 277L291.731 268.479L299 264.566L323 256.804L331.972 255.357L333 243L332 243C331.701 255.355 311.815 257.18 302 255L304 259C297.094 260.574 293.763 261.268 291 254L290 254L291 263L280 261C291.514 274.004 294.732 294.986 282.529 309.945C277.213 316.462 268.461 321.502 262.35 327.662C253.356 336.728 243.625 349.048 231.826 354.9C227.437 357.078 219.871 358.396 215 357.481C210.199 356.58 204.969 350.68 201.314 357.113C197.738 363.408 199.181 372.108 200.041 378.83C202.073 394.708 205.377 411.752 211.019 427C212.693 431.525 216.683 435.237 217.566 440C219.627 451.107 212.579 459.338 203 452C199.958 457.402 197.245 452.865 194.639 449.424C190.386 443.808 187.388 434.909 186.97 427.83C186.454 419.098 182.08 412.357 181.011 404.089C180.267 398.338 182.641 393.595 182.957 388C183.37 380.669 181.858 373.233 182.417 366.039C182.911 359.694 186.288 357.217 188.387 351.83C190.547 346.288 190.333 332.632 189 327L193 318L187 322L181 340L170 338L183 325L182 324C170.269 326.462 162.728 337.575 152.925 343.741C148.045 346.81 141.01 349.875 140 356C146.051 355.003 154.503 346.622 156 356L167 360L158 361L158 365C153.207 365.057 149.517 365.418 150 371C141.511 373.895 132.022 378.551 128 387L125 387C123.121 380.929 122.04 378.845 125 373L135 375C139.18 367.832 152.765 367.551 151 358L132 356L132 360L136 360C134.199 365.826 130.775 364.536 126 363C120.772 374.786 100.846 379.472 107 394C100.772 391.059 85.0547 401.284 86.9082 408.941C89.1648 418.263 95.597 404.102 96 401L108 399L107 395L108 394C116.355 396.253 113.05 389.756 111 385L124 389L110.05 399.464L94 417C88.0668 417.991 85.9134 423.364 82.4861 427.715C76.4281 435.406 69.8025 439.732 66 449L61 448C56.2625 457.854 50.257 467.787 44.1798 477.001C40.4878 482.598 34.9069 488.238 33.5448 495C32.8095 498.65 34.899 501.358 34.8573 504.83C34.8215 507.811 32.2572 509.842 32.7716 513.004C33.5346 517.694 37.7534 519.422 39.642 523.259C41.8843 527.816 37.8639 530.389 34 531L27 517L24 532L22 531L22 554C15.2842 553.366 15.9724 567.574 15.0556 573C12.2957 589.333 12 605.099 12 622C12 626.972 11.014 636.507 16 639L18 614L15 608L18 613L19 613L25 584L28 584L28 596L41 588L40 590L41 590L52 588L52 587L49 587L49 586L53 584C54.2665 589.91 76.2795 588.449 82 589.389C95.7051 591.641 110.103 591 124 591C129.602 591 137.608 589.414 141.75 594.083C147.399 600.451 145 614.153 145 622C145 629.641 147.209 642.5 139.972 647.667C136.435 650.192 130.138 649 126 649C113.95 649 101.96 648.111 90 648C84.9646 647.953 76.075 644.375 72.9444 650.028C63.9272 666.309 93.7204 669.206 103 671L102 667C106.158 668.107 108.264 667.407 109 663L112 663L110 672C124.485 676.913 137.839 678.844 146.867 693C150.502 698.699 150.141 706.373 153.857 711.7C160.416 721.099 169.985 727.878 176 738L180 738L180 636C180 624.719 176.026 604.118 181.179 594.005C185.915 584.71 203.029 586.022 212 584.729C234.499 581.487 258.341 573.11 281 573.001C290.988 572.953 300.729 573.008 308.985 579.529C324.257 591.593 322 613.756 322 631C322 648.585 323.301 666.339 316.547 683C304.062 713.795 266.552 726.886 236 731L236 768C236 773.353 237.1 780.192 233.991 784.895C227.863 794.163 205.098 794.424 195 796.08C190.497 796.819 184.91 798.181 181.742 793.852C179.038 790.157 180 784.303 180 780L180 749C174.061 748.887 174.324 742.766 174 738L166 737L166 731L167 731L167 735L168 735L167 729C160.272 730.973 154.641 721.751 154 716L153 716C153 728.08 149.822 745.235 153.317 756.771C155.289 763.28 159.762 756.384 160 753L170 757L152 763L150 773C158.451 773.076 159.994 775.933 160 784L147 778L138 791C149.283 783.498 155.541 796.267 168 795C172.531 804.41 185.567 806.063 194.91 808.26C216.021 813.225 233.598 823.893 256 824.001C278.615 824.11 301.35 829.73 324 826.811C331.718 825.816 338.615 820.365 346.17 818.459C360.149 814.933 374.945 811.901 389 808.681C394.603 807.397 400.368 808.586 406 807.675C433.716 803.191 464.006 799.568 492 801.873C496.873 802.275 502.126 805.526 507 806.664C521.551 810.063 538.401 813.486 552 819.515C559.977 823.051 577.525 831.609 586 829.066C601.097 824.534 616.181 823.954 632 821.7C652.761 818.742 671.018 814.271 692 813.868C702.888 813.659 706.043 808.917 713.22 802.429C714.984 800.834 719.159 799.845 719.248 796.989C719.38 792.798 703.423 788.284 700.015 786.552C689.509 781.214 678.534 772.399 667 769.718C656.293 767.228 641.097 769.778 630 769.172C621.534 768.71 618.631 777.489 613.661 782.565C605.929 790.461 595.59 796.013 585 798.53C566.321 802.969 536.014 782.836 532.279 764C531.669 760.924 533.696 758.063 533.802 755C534.079 747.031 532.779 738.371 529.755 731.015C526.411 722.876 517.643 719.474 514 713C522.756 716.178 524.188 708.355 516 706C517.864 698.15 517.258 680.711 515 673L504 682L503 679L500 680L502 688L500 689L499 689C497.378 686.269 494.892 684.325 498 682L498 681C492.587 679.393 487.836 670.432 487 665L485 665C483.609 673.749 473.866 672 467 672L467 668C477.293 667.97 475.549 665.456 475 657L487.397 659.742L492 667C492 659.122 490.086 648.27 493.573 641.001C498.426 630.882 519.68 622.973 530 620L530 619C527.423 615.227 530.177 613 534 612L533 618C536.785 616.464 544.438 614.265 545 610L548 611L561 605L561 604C557.063 602.843 554.298 602.112 553 598L555 600C558.501 599.338 566.271 597.023 567 602C570.399 599.467 577.758 587.967 568.941 587.242C561.907 586.663 553.785 591.43 547 593L547 594L549 600L542 595C535.072 597.254 528.164 599.771 521 601.192C489.716 607.4 492 574.141 492 553L484 553C485.957 549.817 487.801 548.693 491 551L492 551L494 533C483.467 537.305 467.153 552.387 467.533 565C467.638 568.486 470.258 572.462 471 576L465 582C459.233 577.248 460 571.943 460 565L434 575L434 617L436 617C436.486 613.413 444.077 599.22 444.793 609.024C445.346 616.587 430.531 621.552 441 629L441 630L434 633L434 663L445 657C438.024 653.735 434.258 647.604 436 640L448 657L449 657C452.468 655.026 459.697 650.303 463.682 652.927C466.742 654.942 465.999 659.881 466 663C466.004 671.764 468.408 684.766 465.258 693C462.6 699.945 454.356 703.354 448 706L448 707L484 707L484 708C473.157 710.671 451.459 718.276 444 708L443 708L407 725C410.022 732.316 405.857 734.211 399 733L400 729C381.247 734.403 362.019 751.517 342 749L343 733L342 733L340 737C322.531 732.843 306.582 746.242 289 745C290.594 749.533 294.762 748.988 299 749L299 754L289 752L289 749L239 750C248.551 739.14 266.437 748.938 278 743L278 746L280 746L279 742C294.589 741.957 309.469 735.661 324 731.233C330.147 729.36 336.685 730.256 343 728C343 718.245 340.996 706.167 350.015 699.649C356.22 695.165 373.137 693.846 376.397 686.725C379.359 680.255 377 668.074 377 661L377 598C368.76 598.826 355.143 608.652 347.225 605.382C343.098 603.678 343.049 597.718 343.004 594C342.879 583.851 339.414 564.42 346.43 556.188C352.192 549.427 365.81 547.747 374 545.28C394.923 538.977 415.333 531.052 436 524.003C441.655 522.074 458.207 512.872 463.566 516.836C466.764 519.2 465.999 524.552 466 528L466 556L467 556C467.049 551.84 467.17 549.112 471 547C472.553 536.935 485.535 530.592 495 531C504.098 492.698 549.315 482.423 581 470.576C589.623 467.351 606.805 457.234 615.956 459.207C624.083 460.958 622.594 489.047 619.682 494.999C615.443 503.663 604.973 502.372 600 509C603.492 510.057 604.432 511.418 605 515L590 514L592 512L592 511C580.049 514.269 563.31 519.91 553.105 526.994C549.57 529.448 545.106 537.959 551.228 540.356C555.682 542.101 563.638 538.096 568 536.86C581.14 533.135 594.294 528.083 608 527C606.205 512.706 614.639 519.742 617 529L626 534L624 533L629 551L630 551L633 549C630.43 562.25 631.282 576.833 627.572 590C622.507 607.969 609.049 621.731 594 632L594 633L602 633C602.742 640.06 614.597 640.029 619.866 642.282C624.665 644.335 628.974 648.224 633.741 650.616C643.03 655.277 652.251 662.765 663 662.977C670.106 663.117 675.861 658.448 683 659.134C690.078 659.814 700.106 665.004 706.995 662.523C712.456 660.557 713.837 653.529 719 650.889C726.436 647.087 731.456 643.273 738.412 638.079C741.094 636.076 745.514 635.412 746 632C761.881 633.774 776.921 626.654 793 630.599C807.593 634.179 822.485 652.414 834 661.621C841.207 667.384 861.128 674.865 857 686C870.135 689.127 886.637 683.092 897.999 693.019C901.318 695.919 907.818 707.643 912.689 704.957C922.838 699.359 923.391 680.946 928.198 672.286C933.284 663.124 940.585 653.454 944.608 644C955.224 619.053 953.05 589.773 943.145 565C940.097 557.378 939.123 541.786 930.581 537.603C924.364 534.559 911.895 537 905 537L905 538L909 538L909 539L900 540L895 553C892.242 540.368 871.573 558.11 866 546C875.773 544.185 890.911 544.755 898 537C891.814 533.908 892.002 528.228 892 522L892 488L892 421C892 413.982 889.642 401.655 895.279 396.318C901.722 390.217 917.83 393 926 393C922.712 386.927 917.56 382.926 911 381L911 374C905.627 375.53 901.838 374.167 902 368C894.653 366.077 886.89 365.806 883 358L888 358L883 354C878.047 359.057 861.137 352.953 855 350L865.911 345.45L879 350L879 347C865.062 343.958 850.568 329.895 838.004 322.772C833.621 320.288 825.237 310.794 822 320L816 319L820 314L820 312C815.193 309.427 810.49 306.54 805 308L803 302L802 305L789.819 298.003L776 296L780 292L747 281C750.576 287.766 749.645 289.625 742 287L743 282L727 285L735 279C731.594 272.116 719.094 271.651 712 269.866C688.858 264.043 666.687 256.463 643 258L645 254L645 253L597 246.03L570 252L570 250L575 243L563 247L549 241L532 240L526 236L522 236L522 235C624.201 235 725.788 257.349 817 303.565C860.051 325.378 907.019 354.292 937 393L931 393L931 394L942 394C928.002 371.622 901.333 351.57 879.714 336.857C872.273 331.793 851.722 322.476 849 314C842.977 314.273 836.643 310.372 834 305L826 304L827 270L827 206L827 0L826 0L826 231L826 284C826 291.065 828.225 302.059 818 300L819 266L819 203L819 0L817 0L817 297C808.187 296.326 811 286.727 811 280L811 228L811 0L809 0L809 224L809 276C809 282.55 811.336 293.042 802 292C807.729 261.142 803 225.397 803 194L803 0L801 0L801 221L801 264C801 270.427 802.397 278.728 800.682 284.941C798.49 292.879 786.35 285.141 784 281C779.366 281.961 768.619 279.289 766.198 274.61C764.315 270.973 766 263.112 766 259L766 218L766 0L765 0L765 210L765 253C765 257.774 766.671 266.561 763.972 270.707C761.254 274.884 755.567 272.32 752 271C757.415 252.681 753 227.137 753 208L753 73L753 23C753 16.0488 754.701 6.43616 752 0z"/>
<path style="fill:#f5f5e7; stroke:none;" d="M753 0L753 183L753 240L752 271C755.227 272.618 761.17 275.336 763.972 271.482C766.736 267.68 765 258.512 765 254L765 210L765 0L753 0M766 0L766 219L766 259C766 263.269 764.202 270.724 765.693 274.61C767.59 279.554 779.774 282.726 784 281C785.411 285.132 797.408 292.716 800.397 286.681C803.244 280.932 801 269.365 801 263L801 206L801 0L766 0M803 0L803 191C803 224.139 806.153 259.137 802 292C811.383 293.952 809 283.47 809 277L809 224L809 0L803 0M811 0L811 228L811 280C811 287.145 807.598 296.691 817 297L817 0L811 0M819 0L819 200C819 232.028 823.844 268.524 818 300C828.155 303.76 826 291.635 826 285L826 231L826 0L819 0M827 0L827 203C827 235.343 831.901 272.215 826 304L834 305C835.728 310.837 843.059 315.112 849 314C850.563 322.238 871.783 332.182 878.83 336.857C902.292 352.421 923.557 372.889 942 394C930.992 392.136 918.236 392.547 907 393.039C903.162 393.207 897.307 393.32 894.514 396.318C888.744 402.509 892 420.065 892 428L892 505C892 512.683 889.051 528.316 893.858 534.721C896.463 538.192 901.142 538.062 905 537.575C914.999 536.311 925.001 537.224 935 537.772C939.177 538 944.346 538.613 947.142 534.772C952.962 526.775 949 505.639 949 496C963.114 496.039 976.998 499.498 991 500.83C995.78 501.285 1003.6 499.318 1007.53 502.603C1014.64 508.54 1019.89 528.106 1022 537L1025 536L1026 550L1044 550L1044 0L827 0z"/>
<path style="fill:#b39850; stroke:none;" d="M241 12L242 13L241 12M271 14L272 15L271 14M275 15L276 16L275 15M276.667 16.3333L277.333 16.6667L276.667 16.3333M280 18L281 19L280 18M281 19L282 20L281 19M285 21C287.396 21.5746 287.487 21.4751 288 19L285 21M244.333 22.6667L244.667 23.3333L244.333 22.6667M288 22L289 23L288 22M446 22L447 23L446 22M443 23L443 24L446 24L443 23M440 24L440 25L443 25L440 24M245 25L246 26L245 25M293 25L294 26L293 25z"/>
<path style="fill:#f5f5e7; stroke:none;" d="M259 27L259 29L263 29L263 27L259 27z"/>
<path style="fill:#b39850; stroke:none;" d="M497 27L498 28L497 27M297 28L298 29L297 28M246.333 30.6667L246.667 31.3333L246.333 30.6667M300 30L301 31L300 30M426 30L427 31L426 30M301 31L302 32L301 31M425 31L426 32L425 31M302.667 32.3333L303.333 32.6667L302.667 32.3333M424 32L425 33L424 32M304 33L305 34L304 33M423 33L424 34L423 33z"/>
<path style="fill:#80a934; stroke:none;" d="M721 33L722 34L721 33z"/>
<path style="fill:#b39850; stroke:none;" d="M728 33L728 260L729 260L729 100L729 54L728 33M306 34L307 35L306 34M421 34L422 35L421 34z"/>
<path style="fill:#80a934; stroke:none;" d="M716 38L720 36L716 38z"/>
<path style="fill:#b39850; stroke:none;" d="M418 36L419 37L418 36M310 37L311 38L310 37M417 37L418 38L417 37M416 38L417 39L416 38M710.333 38.6667L710.667 39.3333L710.333 38.6667z"/>
<path style="fill:#80a934; stroke:none;" d="M711 38L716 40L711 38z"/>
<path style="fill:#b39850; stroke:none;" d="M713 38L714 39L713 38M715 38L716 39L715 38M312 40L315 42L312 40M415 40L415 43L416 43L415 40z"/>
<path style="fill:#80a934; stroke:none;" d="M708 41L709 42L708 41z"/>
<path style="fill:#b39850; stroke:none;" d="M315 42L321 48L315 42M414 43L415 44L414 43M497 44L497 47L498 47L497 44z"/>
<path style="fill:#f5f5e7; stroke:none;" d="M449 46L450 48L451 48L452 46L449 46z"/>
<path style="fill:#b39850; stroke:none;" d="M410 48L411 49L410 48M322 49L323 50L322 49M409 50L409 53L410 53L409 50M325 51L326 52L325 51M496 51L496 54L497 54L496 51M326 52L327 53L326 52M408.333 53.6667L408.667 54.3333L408.333 53.6667M327 54L328 55L327 54M407.333 55.6667L407.667 56.3333L407.333 55.6667M406 57L407 58L406 57M405 58L405 61L406 61L405 58M495.333 58.6667L495.667 59.3333L495.333 58.6667M330 59L331 60L330 59z"/>
<path style="fill:#f5f5e7; stroke:none;" d="M425 59L425 61L428 61L428 59L425 59z"/>
<path style="fill:#b39850; stroke:none;" d="M331 60L332 61L331 60M332 61L333 62L332 61M404.333 61.6667L404.667 62.3333L404.333 61.6667M250 62L250 65L251 65L250 62M400 71L401 72L400 71M492 73L493 74L492 73M491.333 75.6667L491.667 76.3333L491.333 75.6667M490 77L489 83L490 83L490 77M488.333 83.6667L488.667 84.3333L488.333 83.6667M341.333 84.6667L341.667 85.3333L341.333 84.6667M395.333 86.6667L395.667 87.3333L395.333 86.6667M342 87L343 93L360 91L342 87z"/>
<path style="fill:#80a934; stroke:none;" d="M358 87L357 90L358 87z"/>
<path style="fill:#f5f5e7; stroke:none;" d="M280 88L280 98L281 98L280 88z"/>
<path style="fill:#b39850; stroke:none;" d="M394 89L394 93L395 93L394 89M487 89L488 90L487 89M361 91L361 94L362 94L361 91M487 91L488 92L487 91M644 91L645 92L644 91M486.333 93.6667L486.667 94.3333L486.333 93.6667M362 94L363 95L362 94M393 96L390 105L391 105L393 96M483 99L484 100L483 99M482.333 100.667L482.667 101.333L482.333 100.667M481 102L480 106L481 106L481 102M255 105L255 111L256 111L255 105M389 106L390 107L389 106M479.333 106.667L479.667 107.333L479.333 106.667M363 107L364 108L363 107M388 108L388 112L389 112L388 108M478.333 108.667L478.667 109.333L478.333 108.667M619 108C613.473 115.89 617 134.488 617 144L617 236L618 236C621.935 222.689 619 204.88 619 191C619 164.434 623.078 134.133 619 108M361 109L361 112L362 112L361 109M343 111C346.264 116.035 355.543 113.701 361 115C357.843 110.131 348.38 111.999 343 111M387.333 112.667L387.667 113.333L387.333 112.667M342.333 113.667L342.667 114.333L342.333 113.667M476 113L477 114L476 113M257 114L258 115L257 114M386 114L387 115L386 114M475.333 114.667L475.667 115.333L475.333 114.667M258.333 115.667L258.667 116.333L258.333 115.667z"/>
<path style="fill:#f5f5e7; stroke:none;" d="M280 115L284 119L280 115z"/>
<path style="fill:#b39850; stroke:none;" d="M341 115L340 122L341 122L341 115M385.333 116.667L385.667 117.333L385.333 116.667M474 116L475 117L474 116M259.333 117.667L259.667 118.333L259.333 117.667M473 117L474 118L473 117M472.333 118.667L472.667 119.333L472.333 118.667M260 119L260 122L261 122L260 119M471.333 120.667L471.667 121.333L471.333 120.667M339.333 122.667L339.667 123.333L339.333 122.667M470 122L471 123L470 122M469 123L468 126L469 123M261.333 124.667L261.667 125.333L261.333 124.667M338 124L336 129L337 129L338 124M384.333 124.667L384.667 125.333L384.333 124.667M590.667 124.333L591.333 124.667L590.667 124.333M262.333 126.667L262.667 127.333L262.333 126.667M467 126L468 127L467 126M466 127L465 130L466 127M263.333 128.667L263.667 129.333L263.333 128.667M335.333 129.667L335.667 130.333L335.333 129.667M464 130L465 131L464 130M265 131L266 132L265 131M334 131L335 132L334 131M463 131L464 132L463 131M462 132L460 136L462 132M267 133L268 134L267 133M333 133L334 134L333 133M268 134L269 135L268 134M332 134L333 135L332 134M269 135L270 136L269 135M270.333 136.667L270.667 137.333L270.333 136.667z"/>
<path style="fill:#f5f5e7; stroke:none;" d="M285 136L285 138L287 138L287 136L285 136z"/>
<path style="fill:#b39850; stroke:none;" d="M381 136L382 137L381 136M455 141L460 136L455 141M271 138L273 140L273 138L271 138M380 139L380 142L381 142L380 139M273 140L276 142L273 140M452 143L455 141L452 143M276 142L277 143L276 142M451 143L452 144L451 143M379 144L379 148L380 148L379 144M450 144L447 148L450 144M280 146L281 147L280 146M328 146L329 147L328 146M378 148L378 152L379 152L378 148M446 148L447 149L446 148z"/>
<path style="fill:#917436; stroke:none;" d="M324 149C323.713 152.008 324.033 153.134 327 154L326 149L324 149z"/>
<path style="fill:#b39850; stroke:none;" d="M329 150L331 153L329 150z"/>
<path style="fill:#917436; stroke:none;" d="M382 150L382 155L383 155L382 150z"/>
<path style="fill:#b39850; stroke:none;" d="M377.333 152.667L377.667 153.333L377.333 152.667M331 153L332 154L331 153M533.667 153.333L534.333 153.667L533.667 153.333M332 154L333 155L332 154M376 154L377 155L376 154M439.667 154.333L440.333 154.667L439.667 154.333M529 154L529 156L531 156L529 154M295 155L296 156L295 155M375 155L372 161L375 155M437.667 155.333L438.333 155.667L437.667 155.333M296.667 156.333L297.333 156.667L296.667 156.333z"/>
<path style="fill:#917436; stroke:none;" d="M329 156C328.227 162.749 334.043 170.253 340 173L329 156z"/>
<path style="fill:#b39850; stroke:none;" d="M436 156L437 157L436 156M298 157L298 158L308 160L308 159L298 157M431 161L436 157L431 161z"/>
<path style="fill:#917436; stroke:none;" d="M378 158C374.114 167.664 362.217 174.326 353 178L353 180C362.288 182.129 382.003 167.442 382 158L378 158z"/>
<path style="fill:#b39850; stroke:none;" d="M308.667 160.333L309.333 160.667L308.667 160.333M310 161L311 162L310 161M371 161L372 162L371 161M430 161L431 162L430 161M311 162L312 163L311 162M370 162L371 163L370 162M369 163L370 164L369 163M427 163L428 164L427 163M312.333 164.667L312.667 165.333L312.333 164.667M368 164L369 165L368 164M426 164L427 165L426 164M340 165L341 166L340 165M367 165L365 168L367 165M313 166L315 175L316 175L313 166M423 166L424 167L423 166M342 167L343 168L342 167M343 168L344 169L343 168M363.667 168.333L364.333 168.667L363.667 168.333M420 168L421 169L420 168M344 169L345 170L344 169M360 171L363 169L360 171M417.667 169.333L418.333 169.667L417.667 169.333M345.667 170.333L346.333 170.667L345.667 170.333M350 172L350 173L358 173L358 172L353 172L353 171L355 171L350 172M347 171L347 172L350 172L347 171z"/>
<path style="fill:#80a934; stroke:none;" d="M353 171L353 172L356 172L353 171z"/>
<path style="fill:#b39850; stroke:none;" d="M359 171L360 172L359 171M413.667 171.333L414.333 171.667L413.667 171.333M411.667 172.333L412.333 172.667L411.667 172.333z"/>
<path style="fill:#917436; stroke:none;" d="M341 174L348 178L341 174z"/>
<path style="fill:#b39850; stroke:none;" d="M409.667 173.333L410.333 173.667L409.667 173.333M408 174L409 175L408 174M316 175L316 178L317 178L316 175M406.667 175.333L407.333 175.667L406.667 175.333M404.667 176.333L405.333 176.667L404.667 176.333M400 177L401 178L400 177M395 178L395 179L398 179L395 178M317.333 179.667L317.667 180.333L317.333 179.667M318.333 183.667L318.667 184.333L318.333 183.667z"/>
<path style="fill:#917436; stroke:none;" d="M476 183L479 185L479 231L480 231L480 183L476 183M472 185L472 187L474 187L474 185L472 185z"/>
<path style="fill:#b39850; stroke:none;" d="M319 186L319 192L320 192L319 186z"/>
<path style="fill:#917436; stroke:none;" d="M468 187L468 189L470 189L468 187M464 190L465 191L464 190z"/>
<path style="fill:#b39850; stroke:none;" d="M320.333 193.667L320.667 194.333L320.333 193.667M373 193L371 196L373 193z"/>
<path style="fill:#80a934; stroke:none;" d="M251 195C249.4 209.555 251 225.298 251 240C251 245.281 252.68 254.159 249.972 258.867C247.649 262.907 240.723 264.336 237 267.019C226.931 274.276 205.382 292.798 208 307L212 307C207.589 314.065 204.649 326.523 197 330C196.484 324.039 208.817 307.5 200 305L189 327C189.686 332.86 190.22 345.297 188.319 350.925C186.913 355.084 183.473 357.327 182.64 362C181.124 370.497 183.716 379.331 182.896 388C182.019 397.262 177.108 406.77 186 414L186 406L187 406L189 440L190 440L191 437L193 437L194 446L193 446L191 444L196 449L198 434C200.888 436.829 204.215 467.656 215.106 453.721C222.809 443.867 213.814 433.984 210.671 425C205.629 410.586 202.421 394.86 200.445 380C199.512 372.984 197.777 364.736 201.311 358.044C205.079 350.91 209.614 357.023 215 357.733C219.806 358.367 227.437 357.34 231.826 355.33C247.808 348.012 260.871 330.635 272.749 318.174C276.216 314.538 281.036 313.337 283.892 308.982C295.178 291.773 293.529 263.665 271 259L272 223L271.218 210L253 195L251 195z"/>
<path style="fill:#b39850; stroke:none;" d="M321.333 195.667L321.667 196.333L321.333 195.667M370 196L369 200L370 200L370 196M368 200L368 203L369 203L368 200M322 201L323 202L322 201M323 203L323 207L324 207L323 203M367 203L367 207L368 207L367 203M366 207L361 239L362 239L366 207M324 208L329 236L330 236C329.994 226.862 329.18 215.803 324 208z"/>
<path style="fill:#80a934; stroke:none;" d="M274 214L274 215L277 215L274 214z"/>
<path style="fill:#917436; stroke:none;" d="M359 216L359 219L361 219L361 216L359 216z"/>
<path style="fill:#f5f5e7; stroke:none;" d="M520.667 229.333L521.333 229.667L520.667 229.333z"/>
<path style="fill:#917436; stroke:none;" d="M357 246C362.287 257.117 369.004 257.055 380 253.855C385.663 252.207 393.779 247.42 398 254L399 254L401 252L401 256L431 251L431 250C421.992 247.855 409.875 247.212 401 250C406.502 241.514 426.205 247.865 433.91 248.692C441.196 249.475 446.372 245.329 453.004 243.823C465.586 240.964 482.084 243.485 493 236C483.292 231.926 468.284 235.51 458 235.961C437.504 236.858 417.339 238.64 397 241.289C382.969 243.117 371.377 247.135 357 246M522 235L522 236L526 236L533 239.866L553.94 243.056L563.995 246.764L575 243L570 250L570 252L597 246.083L645 253L645 254L643 258C665.944 257.323 687.575 263.581 710 269.611C718.043 271.774 729.958 272.091 735 279L727 285L743 282L742 287C749.547 290.77 752.147 287.67 747 281L780 292L776 296L788.907 298.071L802 305L803 302L805 308L820 312L820 314L816 319L822 320C826.869 311.668 832.683 320.612 838.004 323.281C850.928 329.763 864.773 345.032 879 347L879 350C867.578 348.822 866.463 343.53 855 350C858.507 352.396 862.024 351.401 865.961 352.419C871.442 353.837 878.394 361.104 883 354L888 358L883 358C885.517 366.393 894.807 366.835 902 368C901.489 374.568 905.269 376.352 911 374L911 381C921.515 385.291 924.811 393 937 393C931.982 383.593 922.129 376.77 914.513 369.65C891.73 348.35 866.28 329.817 839 314.653C742.095 260.784 632.621 235 522 235z"/>
<path style="fill:#b39850; stroke:none;" d="M330 236L330 240L331 240L330 236M331.333 241.667L331.667 242.333L331.333 241.667z"/>
<path style="fill:#917436; stroke:none;" d="M600 253L598 251L597 251C598.007 255.723 606.129 255.263 610 254L609 257C612.546 258.676 615.52 259.496 618 256C613.258 253.357 603.181 242.616 600 253z"/>
<path style="fill:#b39850; stroke:none;" d="M399 249L400 250L399 249z"/>
<path style="fill:#917436; stroke:none;" d="M381 254L381 259L381 260L366 263L367 260L364 257C360.381 260.024 360.216 262.489 361 267C370.31 266.791 391.745 264.024 396 255L381 254M296 277L299 277C302.26 265.989 319.184 266.67 328 268C329.213 265.599 332.062 262.943 331.995 260.119C331.912 256.654 327.675 256.025 324.999 256.225C318.332 256.724 309.509 260.671 303 262.746C300.203 263.638 292.544 265.128 291.447 268.214C290.495 270.889 294.687 274.913 296 277M588 261L608 266C605.705 258.518 592.678 252.516 588 261M647 259L647 263L657 264L657 270L671 268C666.205 263.83 653.311 259.022 647 259z"/>
<path style="fill:#b39850; stroke:none;" d="M247.667 261.333L248.333 261.667L247.667 261.333z"/>
<path style="fill:#917436; stroke:none;" d="M624 261L624 264L627 264L627 261L624 261z"/>
<path style="fill:#b39850; stroke:none;" d="M244.667 262.333L245.333 262.667L244.667 262.333M606 264L607 265L606 264M658 265L659 266L658 265z"/>
<path style="fill:#917436; stroke:none;" d="M612 268C616.84 275.296 631.523 278.982 640 279L640 275C650.332 274.021 644.594 282.419 653 285L657 278L663 279L663 276L656 274L657 272L657 271C641.465 271.801 626.859 271.877 612 268z"/>
<path style="fill:#b39850; stroke:none;" d="M233 269L234 270L233 269z"/>
<path style="fill:#917436; stroke:none;" d="M321 275C318.692 279.675 309.31 279.058 308.917 281.174C308.357 284.199 313.393 283.586 315.001 283.547C319.818 283.43 327.975 280.536 331.677 277.272C334.165 275.079 333.473 269.11 329.24 270.341C325.988 271.287 324.788 274.399 321 275z"/>
<path style="fill:#b39850; stroke:none;" d="M232 270L233 271L232 270z"/>
<path style="fill:#917436; stroke:none;" d="M682 274C685.031 274.215 687.133 275.424 690 276.288C692.361 276.999 701.065 276.201 697.914 271.727C695.009 267.604 684.275 270.777 682 274z"/>
<path style="fill:#b39850; stroke:none;" d="M231 271L232 272L231 271M230 272L231 273L230 272M228.667 273.333L229.333 273.667L228.667 273.333z"/>
<path style="fill:#f5f5e7; stroke:none;" d="M248.333 273.667L248.667 274.333L248.333 273.667z"/>
<path style="fill:#b39850; stroke:none;" d="M227 274L228 275L227 274z"/>
<path style="fill:#917436; stroke:none;" d="M667 276L667 278L672 278L667 276M709 276L709 277L714 277L709 276M715 276L712 278L712 279L717 279L715 276z"/>
<path style="fill:#b39850; stroke:none;" d="M743 277L746 281L745 277L743 277z"/>
<path style="fill:#917436; stroke:none;" d="M682 281L682 285L684 286C688.517 283.455 686.99 279.837 682 281M723 281C723.891 293.02 737.82 303.325 749 305L749 309L767 309L767 305L755.464 305.671L724 286L727 282L723 281z"/>
<path style="fill:#b39850; stroke:none;" d="M220 282L221 283L220 282M219 283L218 285L220 285L219 283z"/>
<path style="fill:#917436; stroke:none;" d="M294 296C299.184 293.286 301.646 289.631 303 284C296.289 284.24 292.14 287.166 294 296M663.322 284.832C656.662 287.655 668.924 297.355 673.717 295.346C679.69 292.843 668.737 282.536 663.322 284.832z"/>
<path style="fill:#b39850; stroke:none;" d="M217 286L218 287L217 286M216 287L217 288L216 287z"/>
<path style="fill:#f5f5e7; stroke:none;" d="M257 288L257 291L260 291L260 288L257 288z"/>
<path style="fill:#b39850; stroke:none;" d="M215 290L216 291L215 290z"/>
<path style="fill:#917436; stroke:none;" d="M704 290L704 293L708 293L708 290L704 290z"/>
<path style="fill:#f5f5e7; stroke:none;" d="M257 292L258 293L257 292z"/>
<path style="fill:#917436; stroke:none;" d="M712 293L719 299C718.625 294.081 716.955 292.447 712 293z"/>
<path style="fill:#b39850; stroke:none;" d="M210 295L211 296L210 295z"/>
<path style="fill:#917436; stroke:none;" d="M682 295C680.339 305.081 700.826 313.305 709 311C703.857 303.63 691.133 295.779 682 295M758 296L758 297L766 298L758 296z"/>
<path style="fill:#b39850; stroke:none;" d="M209 297C199.438 302.389 183.785 313.411 173 314C171.264 317.283 169.71 318.14 166 318L167 321C152.561 326.114 137.3 340.752 126 350.866C95.9825 377.733 68.2912 408.019 49.5231 444C40.8174 460.69 29.9822 478.041 24.1898 496C22.6022 500.922 20.3579 514.632 15 516C15.8521 521.112 9.73466 544.684 7 544C9.45709 550.472 6.27149 553.656 5.14892 560C3.45926 569.549 2.79583 579.354 2.08873 589C-0.944616 630.381 6.01403 668.06 22.6667 706C27.5104 717.036 35.1677 736.259 47 741C28.1697 709.725 10.5762 678.927 5.30015 642C3.64167 630.392 5 617.721 5 606C5 519.6 49.8334 427.887 112.015 368.911C129.013 352.789 146.989 339.059 166 325.407C176.636 317.769 189.845 307.186 203 305L203 314C207.004 310.555 209.874 302.269 209 297z"/>
<path style="fill:#917436; stroke:none;" d="M769 300L769 302L774 301L769 300M723 301L723 303L725 303L725 301L723 301M722 305L722 306L727 306L727 307L725 313L713 315L713 316L727 318L727 310L734 310L734 306L722 305M780 304L779 305C781.284 309.243 784.431 309.876 789 309L780 304M95 746L95 745L91 745C90.3529 737.888 87.1714 738.26 82.3248 734.412C79.3168 732.024 77.9223 728.121 74.6998 725.934C69.0667 722.112 60.4095 720.903 54 718.655C37.9402 713.022 24.8496 701.324 19.3557 685C15.6914 674.112 16 663.323 16 652C16 647.259 17.4021 640.854 13 638C15.1767 616.588 10.689 595.379 15.0687 574C16.2089 568.434 15.1568 554.832 22 554L22 531L24 532L27 517L34 531C38.3046 530.667 42.1621 528.26 40.0918 523.259C38.4789 519.364 33.9917 517.561 33.2477 513.004C32.7785 510.13 34.9019 508.363 35.2785 505.715C35.8689 501.564 32.7214 498.417 34.1242 494C39.3609 477.511 56.027 464.856 61 448L66 449L83.1659 427.715L94 417L110.05 400.104L124 389L111 385C112.229 389.729 115.68 395.285 108 394L107 395L108 399L96 401C95.3771 404.155 87.6909 417.322 87.2878 408.005C86.9753 400.78 101.018 391.964 107 394C102.858 378.41 122.015 376.303 126 363C130.742 365.265 134.899 366.492 136 360L132 360L132 356L151 358C151.373 368.251 138.386 366.472 135 375L125 373C120.851 378.443 122.349 381.128 125 387L128 387C133.731 379.025 141.365 375.11 150 371C150.492 365.995 153.336 365.152 158 365L158 361C161.729 362.354 164.042 362.838 167 360L156 356C155.21 345.866 145.803 354.251 140 356C141.776 350.081 148.88 346.906 153.834 343.741C163.419 337.617 170.821 327.274 182 324L183 325L170 338L181 340C183.496 333.55 188.885 329.484 187 322C192.694 319.303 199.262 312.108 201 306C193.244 305.364 187.499 311.797 180.961 315.115C159.173 326.17 137.383 343.839 119.83 360.718C61.5436 416.769 18.389 491.2 6.42901 572C3.38108 592.591 4.99198 614.222 5 635C5.01059 662.453 18.1296 697.305 33.1265 720C37.0729 725.972 40.4724 734.978 46.213 739.411C49.5834 742.014 54.9458 742.077 59 742.753C70.0526 744.595 83.9622 748.597 95 746z"/>
<path style="fill:#f5f5e7; stroke:none;" d="M212.333 305.667L212.667 306.333L212.333 305.667M197 330C204.603 327.666 208.707 314.003 212 307C204.004 307.374 195.449 322.521 197 330z"/>
<path style="fill:#917436; stroke:none;" d="M768 309C767.367 313.061 765.966 314.85 762 316L762 318C767.144 317.442 772.058 315.495 773 310L768 309M735 315L743 313L743 311C738.697 310.076 735.827 310.237 735 315z"/>
<path style="fill:#f5f5e7; stroke:none;" d="M236 315L234 317L234 318L238 315L236 315z"/>
<path style="fill:#917436; stroke:none;" d="M729 317L729 318L733 318L729 317M772 320C775.122 329.11 785.642 321.343 792 321L792 319L772 320M813.667 317.333L814.333 317.667L813.667 317.333M729 319L729 322C742.953 321.875 759.819 331.898 772.985 336.852C778.986 339.109 785.423 344.461 790 337L803 336L803 331C795.545 330.12 783.699 334.318 778 329L774 330L757 328L755 321L729 319M799 319L809 330L811 330L811 319L799 319M822 328L837 333L837 331C832.758 327.715 822.868 316.869 822 328z"/>
<path style="fill:#f5f5e7; stroke:none;" d="M204 330L204 331L208 332L207 329L204 330z"/>
<path style="fill:#917436; stroke:none;" d="M815 332C813.126 339.641 809.717 339.361 803 337L802 338L802 340C811.474 342.801 822.26 341.522 832 343.263C836.896 344.138 840.833 347.012 845.985 346.966C850.568 346.925 853.662 344.788 856 341C851.013 338.308 848.753 332.507 846 341C836.006 338.438 824.785 339.865 817 332L815 332M166 339L166 343L168 343L168 339L166 339M178.667 340.333L179.333 340.667L178.667 340.333M157 349L163 348C160.707 344.788 158.217 345.362 157 349M166 351C169.616 363.508 180.322 357.207 181 347L166 351z"/>
<path style="fill:#b39850; stroke:none;" d="M893 361L893 363L896 363L896 361L893 361z"/>
<path style="fill:#020201; stroke:none;" d="M950 393L950 394C977.261 394.226 1001.29 400.042 1024 415L1024 393L950 393z"/>
<path style="fill:#f5f5e7; stroke:none;" d="M183 395L185 406L186 406L183 395M810 401.424C776.572 405.816 726.884 412.442 711.876 448C701.959 471.497 708 505.902 708 531C708 540.554 707.051 552.98 713.419 560.957C720.855 570.271 735.244 569.858 746 568.83C773.186 566.233 802.03 556.739 827 545.999C838.749 540.946 851.715 532.777 857.622 521C862.447 511.382 862 499.471 862 489L862 441C862 431.376 861.99 419.876 855.471 412.093C845.473 400.158 824.193 399.56 810 401.424M186 406L187 432L188 432C189.213 422.455 193.486 414.072 186 406z"/>
<path style="fill:#b39850; stroke:none;" d="M70 434C73.6889 432.79 88.3197 415.912 84.3719 413.137C81.6494 411.222 79.6355 415.294 78.6289 417.044C75.2223 422.967 70.3925 426.816 70 434z"/>
<path style="fill:#917436; stroke:none;" d="M376 416L373 422L377 423L376 416z"/>
<path style="fill:#b39850; stroke:none;" d="M948 430C948 439.514 943.256 459.849 956 460L956 459L949 459L948 430z"/>
<path style="fill:#917436; stroke:none;" d="M949 430L949 459C956.814 459.161 970.816 464.138 977.852 459.972C983.641 456.544 979.939 449.031 977.207 445C974.789 441.433 973.115 436.297 969.671 433.6C964.547 429.588 955.136 431.139 949 430z"/>
<path style="fill:#b39850; stroke:none;" d="M951 430L951 431L955 431L951 430M956 430L957 431L956 430M963 431L963 432L967 432L963 431M969 432L980 451L981 451C980.823 443.69 976.492 434.063 969 432z"/>
<path style="fill:#f5f5e7; stroke:none;" d="M198 434C198.203 437.321 197.94 440.734 197.255 444C196.856 445.9 196.889 460.934 201.982 454.377C204.316 451.373 200.886 435.871 198 434M191 437L193 446L194 446L193 437L191 437z"/>
<path style="fill:#80a934; stroke:none;" d="M190 441L191 442L190 441z"/>
<path style="fill:#b39850; stroke:none;" d="M794 442.432C785.79 443.506 770.966 445.261 766.318 453.185C761.62 461.194 765 478.844 765 488C765 496.286 760.418 521.257 773 520.786C781.327 520.473 799.44 516.797 803.821 508.895C808.136 501.112 805 484.782 805 476C805 465.395 810.416 440.284 794 442.432z"/>
<path style="fill:#f5f5e7; stroke:none;" d="M614.985 458.693C602.787 458.665 587.456 468.012 576 472C544.69 482.9 506.248 493.699 495.029 529C492.124 538.14 492 547.513 492 557C492 569.009 489.209 587.241 498.34 596.786C511.124 610.151 537.979 596.673 552 592C556.293 590.569 569.86 583.874 572.381 590.149C575.944 599.017 561.597 603.974 556 606.752C541.485 613.957 526.729 620.928 512 627.691C505.465 630.692 496.951 633.02 493.573 640.004C489.539 648.343 491.953 661.918 492.001 671C492.019 674.501 491.722 679.684 496.109 680.639C500.954 681.694 506.892 677.301 511 675.247L544 658.753C574.234 643.636 613.878 629.789 626.302 595C629.72 585.429 630 575.059 630 565C630 557.214 630.385 548.555 628.211 541C620.994 515.927 586.41 531.271 570 536C565.467 537.306 553.421 543.172 549.758 538.667C543.744 531.274 557.241 525.329 562 523.281C575.18 517.609 588.56 512.077 602 507.05C608.391 504.66 616.401 502.647 619.682 495.996C623.326 488.611 621.809 473.1 620.891 465.004C620.499 461.541 618.796 458.702 614.985 458.693z"/>
<path style="fill:#b39850; stroke:none;" d="M979 459L980 460L979 459M961 460L961 461L966 461L961 460M970 461L970 462L976 462L970 461z"/>
<path style="fill:#917436; stroke:none;" d="M949 496L949 525L945.772 536.258L932 538C933.937 543.892 938.524 548.264 940.348 554C949.952 584.206 955.957 612.298 944.412 643C940.728 652.798 932.638 662.832 927.624 672.286C923.415 680.222 922.188 700.68 911.856 704.828C907.878 706.425 899.692 692.917 896 690.603C884.513 683.403 869.335 688.29 857 686C862.557 675.271 841.799 667.057 835 661.621C823.607 652.511 809.164 635.044 794.999 630.88C778.439 626.013 762.515 633.202 746 632L738.333 637.333L725.833 648.667L718 650.5L707 662.5L684 659L662 663L634.667 650.5L609.667 638.5L602 633C593.066 630.439 584.655 638.41 577 642.247C556.507 652.52 536.158 664.191 515 673L516 706C523.002 709.358 521.978 714.986 514 713C515.358 717.092 518.227 715.713 520.776 718.483C525.633 723.761 529.633 731.23 531.91 738C534.925 746.963 530.289 755.807 531.785 764C535.454 784.099 565.769 802.113 585 798.737C595.474 796.898 606.126 790.933 613.661 783.385C617.639 779.399 619.947 773.211 625.093 770.458C630.315 767.664 642.626 770.496 649 770.09C670.859 768.697 681.842 780.136 701.004 787.391C703.988 788.521 719.817 794.028 718.503 797.752C717.682 800.081 714.081 800.807 712.414 802.429C710.259 804.525 709.279 807.446 706.867 809.348C699.434 815.212 691.217 812.178 683 812.694C665.135 813.817 648.622 819.189 631 821.7C619.414 823.351 605.047 821.884 594 825.053C590.242 826.131 587.058 829.222 583 829.242C572.719 829.291 560.616 821.825 551 818.698C536.552 813.999 521.757 810.206 507 806.42C502.226 805.195 496.809 801.744 492 801.484C463.478 799.943 433.31 803.095 405 807.675C399.369 808.586 393.603 807.397 388 808.681C374.017 811.885 359.163 814.867 345.285 818.459C337.773 820.403 330.692 825.957 323 826.797C302.129 829.076 280.926 824.863 260 824.039C236.881 823.127 218.456 815.424 196.715 808.495C186.313 805.179 174.66 804.637 168 795C159.137 795.48 151.698 785.811 144 787.068C139.24 787.845 135.128 793.134 131 795.475C123.559 799.694 115.421 800.994 107 801C125.968 817.483 149.343 824.414 172 833.875C203.086 846.856 235.875 859.566 269 866.192C308.407 874.075 349.145 874.297 389 878.17C428.089 881.968 467.163 886.867 506 892.428C561.346 900.354 616.163 913.087 672 916.911C774.031 923.898 883.944 908.138 964 839.572C1038.39 775.86 1053.6 672.849 1032.24 582C1027.42 561.53 1022.26 540.406 1013.78 521C1011.57 515.946 1010.27 506.36 1005.49 503.028C1001.49 500.232 992.746 501.291 988 500.83C974.962 499.564 962.069 497.031 949 496z"/>
<path style="fill:#b39850; stroke:none;" d="M953 496L953 497L958 497L953 496M963 497L963 498L967 498L963 497z"/>
<path style="fill:#020201; stroke:none;" d="M1023 497L1012 501L1012 507L1016 507L1016 515C1021.08 517.665 1021.22 521.809 1020 527L1024 528L1023 497z"/>
<path style="fill:#b39850; stroke:none;" d="M971 498L971 499L975 499L971 498M978.667 499.333L979.333 499.667L978.667 499.333M985 500L985 501L989 501L985 500M996 501L996 502C1009.88 502.011 1012.79 517.421 1016.58 529C1025.98 557.716 1032.04 585.552 1038 615C1041.13 630.432 1041 645.303 1041 661C1041 761.761 981.511 844.83 890 885.966C756.615 945.926 611.172 906.205 474 888.159C429.117 882.254 383.732 877.564 338.576 873.228C308.769 870.367 280.169 868.924 251 861.244C213.505 851.371 176.732 836.475 141 821.536C128.418 816.276 117.297 803.4 104 801C118.099 819.02 146.811 826.273 167 834.872C199.011 848.506 232.807 861.394 267 868.192C297.516 874.259 328.984 875.964 360 878.089C407.284 881.331 455.024 888.185 502 894.289C552.197 900.813 601.687 912.44 652 917.826C756.884 929.055 877.435 915.587 961 845.675C1025.52 791.699 1052.08 706.923 1042.29 625C1040.14 607.079 1035.44 589.706 1032.83 572C1032.16 567.459 1027.21 560.419 1029.13 556.059C1031.5 550.676 1039.29 552 1044 552L1044 550L1026 550L1025 536L1022 537L1013.54 514L1007.53 502.028L996 501M598 508L599 509L598 508z"/>
<path style="fill:#917436; stroke:none;" d="M590 512L590 514L605 515C604.273 505.66 595.921 509.704 590 512z"/>
<path style="fill:#b39850; stroke:none;" d="M595.667 509.333L596.333 509.667L595.667 509.333M593 510L594 511L593 510z"/>
<path style="fill:#f5f5e7; stroke:none;" d="M377 598L377 660C377 667.309 379.255 679.094 376.397 685.867C373.075 693.74 355.603 694.753 349.044 699.649C339.763 706.576 340.488 735.642 343.724 745.941C346.844 755.872 368.171 743.06 374 740.573C396.956 730.777 419.542 720.125 442 709.258C449.542 705.609 461.934 702.654 465.258 693.999C468.608 685.275 466.004 671.299 466 662C465.999 658.796 466.856 653.148 462.852 651.927C455.476 649.679 440.834 660.196 434 663L434 575C442.896 573.469 462.884 567.753 465.566 557.999C468.221 548.343 467.684 529.88 465.772 520.044C465.061 516.39 462.516 515.126 458.996 515.804C432.509 520.908 405.645 534.453 380 543C370.467 546.177 354.79 547.773 347.228 554.558C339.056 561.89 342.984 583.039 343 593C343.006 596.682 342.366 603.432 346.419 605.396C354.321 609.224 368.974 599.381 377 598z"/>
<path style="fill:#917436; stroke:none;" d="M608 527L618 528C612.821 520.922 604.998 510.822 608 527z"/>
<path style="fill:#b39850; stroke:none;" d="M613.667 527.333L614.333 527.667L613.667 527.333M11.3333 528.667L11.6667 529.333L11.3333 528.667z"/>
<path style="fill:#917436; stroke:none;" d="M471 547C465.896 548.694 467.351 553.617 465.736 557.999C462.924 565.63 454.045 575.854 465 582L471 576C470.489 572.228 467.681 567.842 467.985 564.196C469.072 551.117 483.552 538.989 494 533L494 531C484.831 529.596 471.729 537.323 471 547M622 530L623 531L622 530M623 531L624 532L623 531M26 532L25 542C29.0441 539.637 29.2249 536.275 28 532L26 532M624 532L626 534L626 532L624 532z"/>
<path style="fill:#b39850; stroke:none;" d="M948.333 532.667L948.667 533.333L948.333 532.667z"/>
<path style="fill:#917436; stroke:none;" d="M37 537L38 539L35 547C30.1945 547.802 30.0526 550.566 30 555L35 554C36.5924 548.702 39.011 547.651 44 546L41 559L46 556L47 556C47.066 563.379 48.5109 566.742 56 568L54 580L55 580L60 578L53.7894 563.754L51.5671 551.104L45 534L37 537M626 534L627 535L626 534z"/>
<path style="fill:#b39850; stroke:none;" d="M947 535L948 536L947 535M946 536L947 537L946 536M935.667 537.333L936.333 537.667L935.667 537.333M944 537L945 538L944 537z"/>
<path style="fill:#917436; stroke:none;" d="M488 538L489 539L488 538M633 538C631.175 543.197 634.109 546.289 639 548C640.421 542.616 637.957 539.943 633 538M866 546C866 556.513 882.016 549.246 887 548C891.41 546.898 895.45 551.2 895 553C899.257 552.088 898.863 543.979 900 540L909 539C901.96 536.046 895.709 539.885 889 541.71C881.466 543.76 873.563 544.194 866 546M919 538C919.904 543.464 914.759 546.838 915.451 551.811C915.959 555.456 920.781 556.381 922.218 552.847C923.489 549.725 921.894 545.33 922 542L923 542L923 547L924 547L922 538L919 538M811 567C811.246 574.393 816.822 576.214 823 573L823 578C834.366 580.577 834.375 584.263 833 594L846 594L846 590L837 584L837 573L825 575C826.324 570.393 832.361 564.667 837.571 568.031C840.157 569.7 841.93 576.916 846.378 573.792C850.886 570.627 833.874 560.119 849 557L850 550L864 548C862.75 543.845 855.981 539.042 851.314 541.237C847.839 542.871 845.098 550.826 841.714 553.701C833.749 560.469 821.478 566.057 811 567z"/>
<path style="fill:#b39850; stroke:none;" d="M0 543L0 544L6 544L0 543z"/>
<path style="fill:#917436; stroke:none;" d="M641 547L645 554L645 555L651 552L645 551L641 547M484 553L492 553C490.11 548.296 485.89 548.296 484 553M630 549L630 555L633 549L630 549z"/>
<path style="fill:#b39850; stroke:none;" d="M17 552L18 553L17 552z"/>
<path style="fill:#f5f5e7; stroke:none;" d="M1043 645L1044 645L1044 552C1039.37 552 1030.59 550.37 1028.65 556.059C1026.37 562.735 1034.53 579.946 1036.4 587C1041.24 605.317 1043 626.087 1043 645z"/>
<path style="fill:#917436; stroke:none;" d="M654 555C655.449 563.958 668.526 566.511 675 571.25C677.772 573.279 681.155 576.976 684.945 576.538C688.734 576.1 689.512 572.06 690 569L654 555M26 556L29 559L28 556L26 556z"/>
<path style="fill:#b39850; stroke:none;" d="M465 559L466 560L465 559M464 561L465 562L464 561M463 562L464 563L463 562z"/>
<path style="fill:#917436; stroke:none;" d="M25 563L25 577L29 577L30 563L25 563z"/>
<path style="fill:#b39850; stroke:none;" d="M462 563L463 564L462 563M461 564L462 565L461 564z"/>
<path style="fill:#917436; stroke:none;" d="M479 574C480.59 573.867 482.375 573.896 483.92 573.45C497.465 569.542 476.42 557.566 479 574M646 571L647 571L647 569L648 569L647 573L657 574C656.998 571.647 657.654 567.711 655.972 565.782C651.902 561.111 646.46 567.005 646 571z"/>
<path style="fill:#b39850; stroke:none;" d="M655 566L656 567L655 566z"/>
<path style="fill:#917436; stroke:none;" d="M689 567L690 568L689 567z"/>
<path style="fill:#b39850; stroke:none;" d="M825 569L826 570L825 569z"/>
<path style="fill:#917436; stroke:none;" d="M932 569L933 580L936 580L935 569L932 569M727 573C727.296 581.911 736.13 579.261 743 578.961C760.646 578.188 777.268 578.216 795 578.004C796.867 577.982 814.226 576.497 807.353 571.066C805.244 569.4 801.248 571.079 799 571.626C792.732 573.15 787.333 572.87 781 572C773.802 571.011 766.307 569.029 759 570.224C747.881 572.041 738.477 573 727 573M698 571L700 580C697.429 579.481 693.869 578.5 691.337 579.65C689.197 580.621 689.684 583.171 691.983 583.424C701.231 584.439 709.485 577.345 719 578L723 576L723 573L698 571z"/>
<path style="fill:#b39850; stroke:none;" d="M821.667 571.333L822.333 571.667L821.667 571.333z"/>
<path style="fill:#f5f5e7; stroke:none;" d="M236 731C265.745 728.57 303.676 713.988 316.127 685C323.001 668.998 322 652.002 322 635C322 614.416 325.789 582.961 301 574.75C274.23 565.884 237.979 580.842 211 584.729C202.854 585.903 185.516 584.717 181.179 593.019C176.954 601.108 180 616.988 180 626L180 707L180 772C180 777.868 177.544 791.148 182.434 795.397C187.496 799.796 200.165 795.48 206 794.389C213.631 792.961 227.898 792.733 233.347 786.606C237.155 782.325 236 775.271 236 770L236 731z"/>
<path style="fill:#b39850; stroke:none;" d="M467 575L468 576L467 575z"/>
<path style="fill:#917436; stroke:none;" d="M659 575C659.458 581.51 664.274 582.653 670 584C668.816 577.486 665.34 575.523 659 575M59 579L60 580L59 579z"/>
<path style="fill:#b39850; stroke:none;" d="M700 580L700 581L704 581L700 580z"/>
<path style="fill:#917436; stroke:none;" d="M489 590C488.532 574.582 469.902 587.36 483.99 589.696C485.653 589.972 487.321 589.965 489 590M647 583C648.014 587.863 650.228 588.99 655 588C653.697 583.708 651.265 583.139 647 583M25 584L24 600C29.5255 595.504 28.0526 590.44 28 584L25 584M51 584L49 586L49 587L53 584L51 584M719 585L719 588C725.781 589.696 727.483 590.807 727 598C730.194 597.987 732.271 598.403 733 595L737 596L736 592L743 592L743 588L728 588C726.495 583.466 723.121 584.033 719 585M747 585L747 588C752.831 589.639 765.36 592.509 768 585L747 585M780 587L780 588L803 590L803 586L796 586C792.419 581.903 784.193 584.804 780 587M772 592L776 587L772 592M39 588L39 590L41 588L39 588M925 590L928 606L931 606C932.311 600.495 934.607 585.086 925 590M702 590L702 594L708 594L708 589L702 590M817 594L823 596C822.823 590.672 818.213 587.031 817 594M447 604L450 604L450 614L454 614L454 608L459 608L458 598L465 598L464 590C456.008 591.227 446.01 595.392 447 604M692 590L692 594L698 594L698 590L692 590M939 590L938 625L941 625L941 590L939 590M802 596C805.56 596.547 806.419 595.49 807 592L802 596z"/>
<path style="fill:#b39850; stroke:none;" d="M544.667 594.333L545.333 594.667L544.667 594.333z"/>
<path style="fill:#917436; stroke:none;" d="M542 595L542 598L549 600L549 594L542 595M15 598L15 604L18 604L18 598L15 598M553 598C554.347 605.765 562.759 603.433 568 601L568 600L553 598M768 600C768.128 610.77 777.763 609.041 786 608C784.073 602.379 773.441 601.192 768 600z"/>
<path style="fill:#b39850; stroke:none;" d="M564 602L565 603L564 602M562 603L563 604L562 603z"/>
<path style="fill:#917436; stroke:none;" d="M434 633L441 630C439.223 627.222 436.427 623.562 438.082 620.129C440.306 615.513 447.852 613.022 444.397 606.337C442.179 602.047 438.133 607.79 437.259 610.004C434.184 617.792 434 624.733 434 633M798 606L798 608L804 608C804.175 611.4 806.577 612.766 809 610L808 606L798 606M15 608L16 614L18 614L18 608L15 608M547 609L547 610L552 609L547 609z"/>
<path style="fill:#b39850; stroke:none;" d="M550 609L551 610L550 609z"/>
<path style="fill:#917436; stroke:none;" d="M545.667 610.333L546.333 610.667L545.667 610.333M528 619C532.331 618.097 533.662 616.375 534 612C529.552 612.654 528.308 614.624 528 619M15 614L15 618L16 618L15 614z"/>
<path style="fill:#b39850; stroke:none;" d="M531 618L532 619L531 618z"/>
<path style="fill:#917436; stroke:none;" d="M764 618L762 625C765.538 623.757 765.803 621.569 766 618L764 618M15 625L15 631L16 631L15 625M441 631L442 632L441 631z"/>
<path style="fill:#b39850; stroke:none;" d="M236 636L236 680C245.433 678.171 261.71 677.304 266.86 667.995C269.806 662.672 269 655.845 269 650C269 644.829 270.184 636.138 264.856 633.028C257.544 628.759 243.889 635.372 236 636z"/>
<path style="fill:#917436; stroke:none;" d="M463 632C460.554 642.034 467.881 640.904 471 633L463 632M653 641L653 633L649 633L650 637C644.443 639.129 639.463 640.014 638 633C624.431 630.896 639.049 645.758 644.078 646.418C647.674 646.89 650.17 642.577 653 641M801 632L802 633L801 632M933 641C943.679 636.284 929.774 627.256 933 641z"/>
<path style="fill:#b39850; stroke:none;" d="M592 633L593 634L592 633z"/>
<path style="fill:#917436; stroke:none;" d="M692 639L682 641L680 633C677.241 633 670.918 631.884 669.137 634.584C668.163 636.06 669.127 637.678 670.438 638.488C677.078 642.589 691.574 653.028 692 639M698 634L698 637C704.436 638.749 713.678 649.651 719 640C714.837 638.759 712.264 637.271 711 633L698 634M832 633C833.033 639.188 839.244 638.419 841 633L832 633M445 635L445 637L446 638L448 638L449 634L445 635z"/>
<path style="fill:#b39850; stroke:none;" d="M589 635L590 636L589 635z"/>
<path style="fill:#917436; stroke:none;" d="M485.37 636.917C479.747 638.25 479.18 646.697 485.857 645.573C490.132 644.854 489.987 635.822 485.37 636.917z"/>
<path style="fill:#b39850; stroke:none;" d="M587 636L588 637L587 636M584 638L585 639L584 638z"/>
<path style="fill:#917436; stroke:none;" d="M844.6 639.047C841.66 641.254 844.09 647.159 847.697 644.339C851 641.756 848.198 636.345 844.6 639.047z"/>
<path style="fill:#b39850; stroke:none;" d="M582 639L583 640L582 639z"/>
<path style="fill:#917436; stroke:none;" d="M829 639L824 640C824.288 648.648 833.296 652.503 841 653L841 649L834 646L833 648L832 647L829 639M436 640C433.617 648.141 438.762 657.733 448 657L438 640L436 640z"/>
<path style="fill:#b39850; stroke:none;" d="M580 640L581 641L580 640M578 641L579 642L578 641M576 642L577 643L576 642z"/>
<path style="fill:#917436; stroke:none;" d="M927 651C936.545 649.407 927.053 635.975 927 651z"/>
<path style="fill:#b39850; stroke:none;" d="M574 643L575 644L574 643M572 644L573 645L572 644M570 645L571 646L570 645M684.667 645.333L685.333 645.667L684.667 645.333M568 646L569 647L568 646M566 647L567 648L566 647z"/>
<path style="fill:#917436; stroke:none;" d="M657 647L657 652L671 652C669.219 646.634 661.936 647.102 657 647z"/>
<path style="fill:#b39850; stroke:none;" d="M564 648L565 649L564 648z"/>
<path style="fill:#917436; stroke:none;" d="M692 649L692 653C706.523 658.154 704.934 646.188 692 649z"/>
<path style="fill:#b39850; stroke:none;" d="M562 649L563 650L562 649M560 650L561 651L560 650M558 651L559 652L558 651M556 652L557 653L556 652M554 653L555 654L554 653M552 654L553 655L552 654M550 655L551 656L550 655z"/>
<path style="fill:#917436; stroke:none;" d="M104.333 656.667L104.667 657.333L104.333 656.667z"/>
<path style="fill:#b39850; stroke:none;" d="M548 656L549 657L548 656M446 657L447 658L446 657z"/>
<path style="fill:#917436; stroke:none;" d="M475 657C475.234 664.946 476.672 667.912 467 668L467 672C473.913 672 484.288 674.162 485 665L487 665C487.308 669.089 488.3 671.135 492 673C491.59 660.172 485.761 658.998 475 657z"/>
<path style="fill:#b39850; stroke:none;" d="M546 657L547 658L546 657M544 658L545 659L544 658M542 659L543 660L542 659z"/>
<path style="fill:#917436; stroke:none;" d="M921 659L921 664L924 664L924 659L921 659z"/>
<path style="fill:#b39850; stroke:none;" d="M540 660L541 661L540 660z"/>
<path style="fill:#917436; stroke:none;" d="M95 661L94 668L99 669C100.247 664.62 99.8402 661.808 95 661z"/>
<path style="fill:#b39850; stroke:none;" d="M538 661L539 662L538 661M536 662L537 663L536 662z"/>
<path style="fill:#917436; stroke:none;" d="M109 663C107.798 666.952 105.995 667.659 102 667C103.307 670.952 106.164 671.24 110 672L112 663L109 663z"/>
<path style="fill:#b39850; stroke:none;" d="M534 663L535 664L534 663M532 664L533 665L532 664M530 665L531 666L530 665M528 666L529 667L528 666M488 667L489 668L488 667M526 667L527 668L526 667M524 668L525 669L524 668M522 669L523 670L522 669M7 670L8 671L7 670M16 670L16 674L17 674L16 670M520 670L521 671L520 670M106.667 671.333L107.333 671.667L106.667 671.333M518 671L519 672L518 671M516 672L517 673L516 672z"/>
<path style="fill:#917436; stroke:none;" d="M916 679L921 678L921 673C916.681 673.337 914.995 674.585 916 679z"/>
<path style="fill:#b39850; stroke:none;" d="M508 676L509 677L508 676z"/>
<path style="fill:#917436; stroke:none;" d="M509 676L503 679L504 682C506.951 680.728 509.296 679.435 509 676M897 677C892.765 686.895 908.604 686.782 903 676L897 677z"/>
<path style="fill:#b39850; stroke:none;" d="M17.3333 677.667L17.6667 678.333L17.3333 677.667M506 677L507 678L506 677M504 678L505 679L504 678z"/>
<path style="fill:#917436; stroke:none;" d="M876 678L874 682C878.74 683.128 885.143 684.596 887 679L876 678M495 682L499 689L500 689L502 688L500 681L495 682z"/>
<path style="fill:#b39850; stroke:none;" d="M18 682L19 683L18 682z"/>
<path style="fill:#917436; stroke:none;" d="M907 684C907.406 688.409 908.021 690.754 912 693L913 684L907 684z"/>
<path style="fill:#b39850; stroke:none;" d="M19 685L20 686L19 685M20 688L21 689L20 688z"/>
<path style="fill:#917436; stroke:none;" d="M504 692C503.587 697.165 504.094 700.546 509 703L504 692z"/>
<path style="fill:#b39850; stroke:none;" d="M24 696L25 697L24 696M26 699L27 700L26 699M27 700L28 701L27 700M30 704L31 705L30 704M31 705L32 706L31 705z"/>
<path style="fill:#917436; stroke:none;" d="M444 708C449.359 718.854 474.536 710.994 484 708C472.181 702.309 456.353 705.699 444 708z"/>
<path style="fill:#b39850; stroke:none;" d="M445.667 707.333L446.333 707.667L445.667 707.333z"/>
<path style="fill:#020201; stroke:none;" d="M16 709L16 738L17 738C21.3532 733.559 26.5409 735.874 32 737L32 730L28 730L28 726C20.651 722.339 19.0051 716.715 19 709L16 709z"/>
<path style="fill:#b39850; stroke:none;" d="M36 709L37 710L36 709M39 711L40 712L39 711z"/>
<path style="fill:#917436; stroke:none;" d="M489 711L487 735C494.67 732.18 489.983 722.011 500 724L501.903 730.886L497 741L514 748L504 739C506.751 734.144 510.142 734.168 514 738L520 739C517.268 726.574 500.561 722.439 494 711L489 711z"/>
<path style="fill:#b39850; stroke:none;" d="M1040.33 711.667L1040.67 712.333L1040.33 711.667M40 712L41 713L40 712z"/>
<path style="fill:#917436; stroke:none;" d="M153 712C153.482 718.05 158.467 733.748 167 729L168 735L167 735L167 731L166 731L166 737L174 738C174.041 739.584 174.064 741.161 174.229 742.738C175.776 757.497 185.583 738.503 176 738C172.042 728.585 162.212 716.602 153 712z"/>
<path style="fill:#b39850; stroke:none;" d="M42 713L43 714L42 713z"/>
<path style="fill:#917436; stroke:none;" d="M469 713L469 715L473 715L473 713L469 713z"/>
<path style="fill:#b39850; stroke:none;" d="M44 714L45 715L44 714M46 715L47 716L46 715M48 716L49 717L48 716M50 717L51 718L50 717M53 718L54 719L53 718M56 719L57 720L56 719M59 720L60 721L59 720M62 721L63 722L62 721M65 722L66 723L65 722M68.6667 723.333L69.3333 723.667L68.6667 723.333M71.6667 724.333L72.3333 724.667L71.6667 724.333M75 725L76 726L75 725M76 726L91 745C97.7199 744.464 99.0995 736.158 94.4861 731.513C90.6919 727.693 81.1703 726.451 76 726M405 726L406 727L405 726z"/>
<path style="fill:#917436; stroke:none;" d="M399 733C405.275 734.476 410.098 733.328 408 726C403.746 727.229 400.38 728.588 399 733z"/>
<path style="fill:#b39850; stroke:none;" d="M403 727L404 728L403 727z"/>
<path style="fill:#917436; stroke:none;" d="M279 742L280 746L278 743C267.917 746.616 245.047 739.613 239 750L289 749L289 752L299 754L299 749C294.682 748.961 291.318 748.968 289 745C306.915 747.215 322.104 733.689 340 737L343 728L324 730.843L279 742z"/>
<path style="fill:#b39850; stroke:none;" d="M401 728L402 729L401 728z"/>
<path style="fill:#917436; stroke:none;" d="M154 736C154.197 739.569 154.462 741.757 158 743L156 736L154 736M379 739L379 744L383 743L383 748L403 748C402.022 744.536 400.526 743.518 397 743L397 739L393 740C389.269 735.387 383.828 737.924 379 739z"/>
<path style="fill:#b39850; stroke:none;" d="M50.6667 741.333L51.3333 741.667L50.6667 741.333z"/>
<path style="fill:#917436; stroke:none;" d="M520 741C517.557 746.458 516.57 749.992 518 756L524 755L524 756L522 757L522 758L526 760C525.743 752.999 524.626 746.544 520 741z"/>
<path style="fill:#b39850; stroke:none;" d="M55 742L55 743L58 743L55 742M62.6667 743.333L63.3333 743.667L62.6667 743.333z"/>
<path style="fill:#917436; stroke:none;" d="M342 743L344 749L342 743z"/>
<path style="fill:#b39850; stroke:none;" d="M67 744L67 745L70 745L67 744M284 744L284 745L287 745L284 744z"/>
<path style="fill:#917436; stroke:none;" d="M317 745C319.192 757.626 336.264 742.764 322.024 744.429C320.338 744.626 318.694 744.866 317 745z"/>
<path style="fill:#b39850; stroke:none;" d="M74 745L74 746L78 746L74 745M343.333 745.667L343.667 746.333L343.333 745.667M82 746L82 747L87 747L82 746M93 746L94 747L93 746z"/>
<path style="fill:#917436; stroke:none;" d="M493 747L493 754L500 756C499.318 751.071 498.263 747.839 493 747M330 749L330 754C340.732 755.237 341.379 747.594 330 749M362 754L369 753C366.898 747.299 362.474 748.06 362 754M309 750L309 754L313 754L313 750L309 750M160 753C159.363 757.539 157.628 759.252 153 759L153 764L170 757C167.65 752.738 164.406 753.308 160 753M164 767L164 772L168 772L168 767L164 767M148 778L160 784C159.999 775.922 153.287 766.886 148 778z"/>
<path style="fill:#b39850; stroke:none;" d="M149 774L150 775L149 774M148 776L149 777L148 776z"/>
<path style="fill:#917436; stroke:none;" d="M626 779C627.785 784.88 632.131 783.771 637 782L637 780L626 779M638 780L638 781C645.206 784.985 651.336 784.6 659 782L659 780L638 780z"/>
<path style="fill:#020201; stroke:none;" d="M16 781L16 801L91 801L91 800C74.0323 799.989 56.4142 796.225 40 792.127C30.4531 789.743 22.8911 788.406 16 781z"/>
<path style="fill:#917436; stroke:none;" d="M669 781L669 782L671 787L677 787L673 784L674 782L669 781M162 782C162.707 786.448 164.748 787.877 169 789C168.616 784.066 166.517 783.236 162 782M528 782L528 787L533 786L528 782M678 784L678 787L679 787L678 784M330 788L330 790L333 790L333 788L330 788M364 788L364 791L367 791L367 788L364 788M536 790L536 793L540 793L540 790L536 790M614 791L614 792L623 793C620.728 789.499 617.774 790.114 614 791M657 796L669 797L669 790C660.587 790 661.234 790.354 657 796z"/>
<path style="fill:#b39850; stroke:none;" d="M135 792L136 793L135 792z"/>
<path style="fill:#917436; stroke:none;" d="M293 792L293 797L297 797L297 792L293 792M323 792L323 799L327 799L327 792L323 792M413 792L413 796C417.886 796.382 422.938 798.114 424 792L413 792M450 792L450 795L453 795L453 792L450 792M624 792L624 799L628 799L626 792L624 792z"/>
<path style="fill:#b39850; stroke:none;" d="M134 793L135 794L134 793M132 794L133 795L132 794z"/>
<path style="fill:#917436; stroke:none;" d="M258 794L258 797L262 797L262 794L258 794M348 794L348 797L354 797L354 794L348 794M399 794L399 800L406 801L403 798L403 794L399 794M542 794L542 799L551 797L551 796L542 794M702 799C705.527 798.439 707.063 797.674 707 794L702 799z"/>
<path style="fill:#b39850; stroke:none;" d="M131 795L132 796L131 795M129 796L130 797L129 796M126 797L127 798L126 797M124 798L125 799L124 798z"/>
<path style="fill:#917436; stroke:none;" d="M237 799L237 802C249.502 803.58 249.892 798.893 237 799M279 798L280 799L279 798M358 803L358 805L373 803L379 801L379 799L358 803M686 803L680 803C682.083 809.285 698.912 805.328 700 799C694.604 798.769 688.095 796.535 686 803z"/>
<path style="fill:#b39850; stroke:none;" d="M120.667 799.333L121.333 799.667L120.667 799.333z"/>
<path style="fill:#917436; stroke:none;" d="M204 802L227 807L227 805L211 803L211 800L204 802M290 803C291.673 807.163 297.715 808.598 302.09 808.781C312.385 809.212 329.783 807.543 338 801C330.85 797.559 329.454 801.829 322.957 802.853C312.57 804.489 300.377 804.283 290 803M562 800L562 802C565.137 802.494 566 802.036 567 799L562 800M610 799L610 802L614 802L614 799L610 799z"/>
<path style="fill:#b39850; stroke:none;" d="M114 800L114 801L117 801L114 800z"/>
<path style="fill:#917436; stroke:none;" d="M278.667 802.333L279.333 802.667L278.667 802.333M284 802L284 803L287 803L284 802M530 806L534 806L534 802L530 806M348 809L354 803C350.37 804.113 348.658 805.17 348 809M538 807L551 809C550.444 802.032 540.241 800.247 538 807M600 804C601.898 809.395 606.353 807.476 608 803L600 804M648 805L648 807L667 807L667 804L648 805M344 807L338 809L338 813C342.195 812.117 345.207 811.572 346 807L344 807M633 809L633 811L648 811L648 809L633 809M231 809L231 811L239 813C237.416 809.06 234.986 809.047 231 809M250 809L250 813L260 813L260 809L250 809M572 817C566.542 801.263 554.333 817.839 566.976 817.855C568.707 817.857 570.334 817.395 572 817M583 809L583 813L579 813L579 817L594 823L594 815L583 809M608 809C608.898 813.071 609.682 815.281 614 816C613.844 811.317 612.783 809.551 608 809M618 809L618 813L624 813L624 809L618 809M329 817L336 817C334.169 811.034 329.798 810.057 329 817M243 813C243.832 817.992 247.168 817.992 248 813L243 813M280 814L280 817L285 817L280 814z"/>
</svg>
